<svg width="37" height="37" viewBox="0 0 37 37" fill="none" xmlns="http://www.w3.org/2000/svg">
<g clip-path="url(#clip0_8_1926)">
<mask id="mask0_8_1926" style="mask-type:alpha" maskUnits="userSpaceOnUse" x="0" y="0" width="37" height="37">
<path d="M0.217651 0.462036H36.2177V36.3781H0.217651V0.462036Z" fill="white"/>
</mask>
<g mask="url(#mask0_8_1926)">
<path fill-rule="evenodd" clip-rule="evenodd" d="M2.10274 34.5373H4.00918V26.9454H2.10274V34.5373ZM4.95062 25.0618H1.15983C0.639423 25.0618 0.217651 25.4835 0.217651 26.0032V35.4802C0.217651 36.0006 0.639423 36.4216 1.15983 36.4216H4.95062C5.47102 36.4216 5.8928 36.0006 5.8928 35.4802V26.0032C5.8928 25.4835 5.47102 25.0618 4.95062 25.0618Z" fill="#004A7C"/>
<path fill-rule="evenodd" clip-rule="evenodd" d="M9.68269 34.5379H11.5891V23.1552H9.68269V34.5379ZM12.532 21.2709H8.74125C8.22084 21.2709 7.79907 21.6926 7.79907 22.2131V35.4801C7.79907 36.0005 8.22084 36.4215 8.74125 36.4215H12.532C13.0524 36.4215 13.4742 36.0005 13.4742 35.4801V22.2131C13.4742 21.6926 13.0524 21.2709 12.532 21.2709Z" fill="#004A7C"/>
<path fill-rule="evenodd" clip-rule="evenodd" d="M17.2645 34.5379H19.1709V19.3652H17.2645V34.5379ZM20.1131 17.4801H16.3223C15.8019 17.4801 15.3809 17.9019 15.3809 18.4223V35.4801C15.3809 36.0005 15.8019 36.4215 16.3223 36.4215H20.1131C20.6342 36.4215 21.0553 36.0005 21.0553 35.4801V18.4223C21.0553 17.9019 20.6342 17.4801 20.1131 17.4801Z" fill="#004A7C"/>
<path fill-rule="evenodd" clip-rule="evenodd" d="M24.846 34.5378H26.7524V15.5736H24.846V34.5378ZM27.6938 13.6899H23.9038C23.3834 13.6899 22.9616 14.1117 22.9616 14.6314V35.48C22.9616 36.0004 23.3834 36.4214 23.9038 36.4214H27.6938C28.2142 36.4214 28.6368 36.0004 28.6368 35.48V14.6314C28.6368 14.1117 28.2142 13.6899 27.6938 13.6899Z" fill="#004A7C"/>
<path fill-rule="evenodd" clip-rule="evenodd" d="M32.4269 34.5378H34.3333V11.7835H32.4269V34.5378ZM35.2755 9.89844H31.4855C30.965 9.89844 30.5425 10.3209 30.5425 10.8414V35.48C30.5425 36.0004 30.965 36.4215 31.4855 36.4215H35.2755C35.7959 36.4215 36.2177 36.0004 36.2177 35.48V10.8414C36.2177 10.3209 35.7959 9.89844 35.2755 9.89844Z" fill="#004A7C"/>
<path fill-rule="evenodd" clip-rule="evenodd" d="M31.5302 7.68515L33.0981 3.23189C33.271 2.74093 33.0134 2.20286 32.5224 2.02988L28.0685 0.462036L27.4421 2.23892L29.7762 3.06038L0.738692 17.5795C0.272756 17.8121 0.084321 18.3781 0.316921 18.8441C0.549521 19.3085 1.1163 19.4977 1.5815 19.2651L30.5564 4.77765L29.7526 7.06022L31.5302 7.68515Z" fill="#004A7C"/>
</g>
</g>
<defs>
<clipPath id="clip0_8_1926">
<rect width="36" height="36" fill="white" transform="translate(0.217651 0.462036)"/>
</clipPath>
</defs>
</svg>
