<svg width="167" height="54" viewBox="0 0 167 54" fill="none" xmlns="http://www.w3.org/2000/svg">
<g id="RS Logo" clip-path="url(#clip0_6_5723)">
<path id="Vector" d="M54.2684 17.6503C53.1575 14.2774 51.0378 12.9679 49.8758 12.4951C48.9415 12.1577 47.9508 12.0037 46.9581 12.0416H46.0004H45.4705L35.6 11.9905C35.9146 11.7873 36.1823 11.5195 36.3853 11.2047C37.2281 9.92712 36.8514 8.23428 36.4237 6.91833C36.0661 5.78763 35.1084 3.08546 33.9592 1.91005C32.1779 0.146934 29.5986 -0.00637817 26.151 -0.00637817C22.5692 -0.00637817 20.6603 1.59065 19.843 2.54886C19.0652 3.59503 18.513 4.79145 18.2214 6.06232C18.1639 6.24757 18.1128 6.43283 18.0745 6.56698L14.9397 15.8617C14.8433 15.4876 14.6668 15.1388 14.4226 14.8396C13.4521 13.6514 11.7155 13.4917 10.3173 13.4853H10.062C8.64459 13.4853 6.06524 13.5875 4.72449 14.2646C2.48352 15.3953 1.53223 17.7845 0.485166 21.0296C-0.619357 24.4026 0.319168 26.6959 0.976774 27.7563C1.74572 28.8211 2.72869 29.7132 3.86258 30.3754L4.30311 30.6757L12.2582 36.4952H12.0922C9.76188 36.4952 8.84251 39.223 8.54243 40.1237C8.16575 41.2416 7.31661 44.0077 7.5656 45.6047C7.96144 48.0705 9.96619 49.6867 12.7562 51.6862C14.2287 52.8052 16.0154 53.4331 17.8638 53.4812C18.3732 53.4828 18.881 53.425 19.377 53.3087C20.6285 52.9098 21.7847 52.2574 22.7735 51.3923L23.1949 51.0729L31.2522 45.3683C31.1078 45.7269 31.0446 46.1131 31.067 46.499C31.15 48.0194 32.4589 49.1629 33.5825 49.9869C34.5338 50.6832 36.928 52.3441 38.5433 52.5997C38.8199 52.6434 39.0996 52.6647 39.3797 52.6635C41.5504 52.6635 43.5743 51.3284 45.9877 49.5909C48.8862 47.5083 49.4864 45.1192 49.5822 43.8416C49.595 42.5384 49.3317 41.2474 48.8096 40.0534L48.6309 39.5552L45.6429 30.2094C46.1439 30.6239 46.7741 30.8499 47.4242 30.8482C48.3882 30.8482 49.4672 30.4074 50.7952 29.4619C51.7657 28.772 54.096 27.0345 54.8366 25.5908C55.9858 23.3677 55.3155 20.8955 54.2556 17.6503" fill="white"/>
<path id="Vector_2" d="M28.0727 10.3679C26.7448 10.3679 24.5421 10.3679 24.5421 10.3679L27.1342 2.65105C27.1342 2.65105 28.8261 7.58267 29.1326 8.49617C29.439 9.40966 29.2283 10.3615 28.0727 10.3679ZM34.6743 7.44852C34.3296 6.36254 33.4613 3.97977 32.6568 3.18765C31.4693 2.00585 29.5795 1.81421 26.151 1.81421C23.7121 1.81421 22.1096 2.70854 21.2349 3.73064C20.5135 4.54832 20.1879 5.94092 19.8112 7.1355L15.7506 19.2154H21.5605L24.2356 11.2494L26.9171 19.2665H32.7398L30.6265 12.9487C30.4671 12.3718 30.2533 11.8114 29.9881 11.275C29.9014 11.1145 29.7813 10.9744 29.6359 10.8642C29.4905 10.754 29.3233 10.6763 29.1453 10.6362C29.0687 10.6362 30.4222 10.6362 31.6162 10.6362C32.8101 10.6362 33.8699 10.6362 34.1061 10.6362C34.9361 10.5404 35.4852 9.88238 34.7063 7.44213" fill="#D80025"/>
<path id="Vector_3" d="M44.9023 22.665C44.4873 21.3874 43.8106 19.3368 43.8106 19.3368L52.0275 19.3943L47.0284 23.0802C46.1601 23.719 45.2663 23.719 44.9023 22.665ZM49.7418 27.9799C50.6803 27.3411 52.7042 25.7632 53.215 24.7859C53.9811 23.2974 53.5789 21.4704 52.5191 18.2381C51.7657 15.9447 50.4122 14.7054 49.1672 14.1944C48.1585 13.7792 46.7219 13.8941 45.4578 13.9069L32.5994 13.7919L34.3806 19.2729L42.8721 19.324L35.9959 24.3323L37.7964 29.8133L43.2168 25.8591C43.7164 25.5236 44.1825 25.1406 44.6087 24.7156C44.7375 24.5887 44.8359 24.4343 44.8967 24.2639C44.9575 24.0936 44.9791 23.9117 44.9598 23.7318C44.9598 23.6488 45.3556 24.9136 45.7259 26.0571C46.0962 27.2006 46.4027 28.1779 46.5049 28.3951C46.856 29.1553 47.6541 29.4619 49.7418 27.9799Z" fill="#D80025"/>
<path id="Vector_4" d="M38.2944 42.3148L41.1483 40.2578L43.6318 48.013L38.5242 44.4421C37.6495 43.8032 37.3367 42.992 38.2688 42.3148H38.2944ZM34.6616 48.5177C35.5809 49.1948 37.707 50.6194 38.8179 50.7918C40.4843 51.0537 42.1187 50.1083 44.896 48.1088C46.8688 46.6907 47.6349 45.0362 47.7435 43.7074C47.8328 42.6214 47.2774 41.3119 46.8688 40.1237L42.987 27.9863L38.2752 31.3592L40.829 39.3763L33.9401 34.4447L29.2156 37.824L34.6807 41.7143C35.1605 42.0809 35.6735 42.4017 36.213 42.6725C36.3785 42.7475 36.5581 42.7863 36.7397 42.7863C36.9214 42.7863 37.101 42.7475 37.2665 42.6725C37.3431 42.6406 36.2513 43.4136 35.2681 44.1099C34.2849 44.8062 33.4421 45.3875 33.2634 45.5664C32.6249 46.1349 32.6249 46.9845 34.668 48.4921" fill="#D80025"/>
<path id="Vector_5" d="M17.3786 42.1615C18.464 42.9345 20.2389 44.2185 20.2389 44.2185L13.5607 48.952L15.4122 43.0622C15.7378 42.0465 16.4401 41.4907 17.3786 42.1615ZM10.311 40.6795C9.94065 41.759 9.23197 44.1993 9.41074 45.3044C9.6725 46.9526 11.0835 48.1983 13.8799 50.1977C15.8527 51.6159 17.7106 51.8267 18.9875 51.5137C20.0474 51.2709 21.1391 50.3383 22.1798 49.5973L32.644 42.1807L27.9386 38.7822L21.037 43.6819L23.6291 35.6265L18.9237 32.2472L16.8806 38.5969C16.6726 39.1597 16.5208 39.7418 16.4273 40.3345C16.4007 40.513 16.4145 40.6951 16.4675 40.8676C16.5205 41.04 16.6115 41.1984 16.7338 41.331C16.7912 41.3949 15.7059 40.6092 14.7354 39.8937C13.765 39.1783 12.9222 38.5778 12.7115 38.4628C11.9773 38.0539 11.1537 38.2648 10.3429 40.6795" fill="#D80025"/>
<path id="Vector_6" d="M11.0644 22.4159C10.6622 23.6935 9.97262 25.7441 9.97262 25.7441L3.36464 20.9146L9.58955 20.8444C10.6685 20.8444 11.4155 21.3235 11.0644 22.4159ZM10.2982 15.2995C9.14902 15.2995 6.58883 15.3698 5.58646 15.8744C4.07971 16.641 3.31995 18.353 2.26012 21.5854C1.50674 23.8787 1.87066 25.6674 2.57296 26.8045C3.14118 27.7371 4.37339 28.4718 5.40769 29.1936L15.757 36.7571L17.5638 31.2889L10.7005 26.2998L19.2366 26.2551L21.0562 20.7869H14.3269C13.7226 20.7689 13.1179 20.8053 12.52 20.8955C12.3409 20.9279 12.1707 20.9982 12.021 21.1018C11.8712 21.2053 11.7453 21.3397 11.6518 21.496C11.6071 21.5662 12.0284 20.3078 12.4115 19.1707C12.7946 18.0336 13.1202 17.0562 13.1713 16.8199C13.3373 16.0086 12.8712 15.2931 10.2982 15.274" fill="#D80025"/>
<path id="Vector_7" d="M163.929 16.1491C163.93 15.8809 164.001 15.6177 164.136 15.3856C164.27 15.1536 164.463 14.9609 164.695 14.8268C164.929 14.6894 165.196 14.6188 165.468 14.6224C165.734 14.6207 165.996 14.689 166.228 14.8204C166.463 14.9547 166.659 15.1486 166.796 15.3826C166.93 15.6157 167 15.8801 167 16.1491C167.002 16.4135 166.934 16.6736 166.802 16.9029C166.668 17.1383 166.474 17.3338 166.239 17.4696C166.005 17.6054 165.739 17.6766 165.468 17.6759C165.193 17.6819 164.923 17.6087 164.689 17.4651C164.454 17.3324 164.26 17.138 164.127 16.9029C163.998 16.6727 163.93 16.4132 163.929 16.1491ZM164.121 16.1491C164.117 16.3849 164.179 16.6171 164.299 16.8199C164.419 17.0228 164.588 17.1921 164.791 17.3118C164.997 17.4309 165.23 17.4927 165.468 17.4906C165.703 17.4941 165.935 17.4322 166.138 17.3118C166.342 17.1937 166.512 17.0241 166.63 16.8199C166.75 16.6171 166.812 16.3849 166.808 16.1491C166.806 15.925 166.747 15.7051 166.636 15.5103C166.518 15.3042 166.349 15.1324 166.145 15.0121C165.94 14.8901 165.706 14.8261 165.468 14.8268C165.232 14.8234 165 14.8853 164.797 15.0057C164.591 15.1234 164.42 15.2929 164.299 15.4976C164.189 15.6973 164.13 15.9211 164.127 16.1491H164.121ZM166.036 15.7722C166.037 15.8713 166.011 15.9686 165.959 16.0533C165.906 16.138 165.828 16.2047 165.736 16.245L166.215 17.0435H165.972L165.525 16.3152H165.206V17.0435H165.002V15.2548H165.429C165.591 15.2455 165.75 15.2905 165.883 15.3826C165.934 15.4323 165.973 15.4936 165.997 15.5613C166.02 15.629 166.027 15.7013 166.017 15.7722H166.036ZM165.2 16.1491H165.429C165.534 16.1552 165.637 16.1209 165.717 16.0533C165.754 16.0184 165.783 15.9757 165.802 15.9282C165.821 15.8807 165.829 15.8296 165.825 15.7786C165.825 15.5487 165.691 15.4273 165.423 15.4273H165.206L165.2 16.1491Z" fill="white"/>
<path id="Vector_8" d="M67.4078 17.7973H69.3678C70.3574 17.7973 70.9895 18.2125 70.8299 19.0749C70.6703 19.9373 69.9233 20.2567 68.6145 20.2567H66.9545L67.4078 17.7973ZM67.7462 23.0355C69.7062 23.0355 69.8977 23.5721 69.604 25.2139C69.4455 25.9328 69.3833 26.6696 69.4189 27.405H73.6902L73.7604 27.0153C73.256 27.0153 73.4092 26.4659 73.7093 24.8306C74.1626 22.2753 73.4028 21.9879 72.1259 21.496C72.8336 21.321 73.4717 20.9355 73.9561 20.3904C74.4405 19.8453 74.7484 19.1662 74.8394 18.4425C75.2863 16.0022 74.0796 14.8715 69.7956 14.8715H63.7239L61.4574 27.405H65.6648L66.4565 23.0355H67.7462Z" fill="white"/>
<path id="Vector_9" d="M75.6119 27.405L77.8784 14.8779H88.3682L87.8319 17.7973H81.5623L81.2367 19.5923H86.5422L86.0187 22.5181H80.7132L80.3556 24.4792H86.8742L86.3507 27.405H75.6119Z" fill="white"/>
<path id="Vector_10" d="M93.6227 20.5825L94.1207 17.7973H95.321C96.2084 17.7973 97.5364 17.957 97.3321 19.1132C97.1278 20.2695 96.3552 20.5825 95.372 20.5825H93.6227ZM92.3841 27.405L93.0864 23.5082H95.2188C98.9091 23.5082 100.863 21.8026 101.354 19.1004C101.82 16.5452 100.333 14.8715 96.6298 14.8715H90.4368L88.1703 27.405H92.3841Z" fill="white"/>
<path id="Vector_11" d="M103.563 14.8715H107.777L106.424 22.3775C106.194 23.6104 106.258 24.6709 107.988 24.6709C109.507 24.6709 110.12 23.7254 110.369 22.3775L111.723 14.8715H115.937L114.66 21.9559C113.932 25.974 111.71 27.7052 107.439 27.7052C103.455 27.7052 101.508 26.2296 102.293 21.9112L103.563 14.8715Z" fill="white"/>
<path id="Vector_12" d="M122.711 22.1667C124.045 22.1667 125.015 22.237 124.817 23.3294C124.645 24.2748 123.828 24.4792 122.794 24.4792H120.948L121.37 22.1667H122.711ZM123.636 17.7973C124.536 17.7973 125.354 17.7973 125.175 18.7874C125.041 19.522 124.37 19.8798 123.534 19.8798H121.791L122.168 17.7973H123.636ZM122.474 27.3794C125.813 27.3794 128.22 26.4084 128.693 23.604C128.942 22.2434 128.399 21.0488 127.071 20.7294C127.61 20.4587 128.083 20.0739 128.458 19.6017C128.833 19.1296 129.1 18.5814 129.242 17.9953C129.695 15.5103 127.512 14.8459 124.613 14.8459H118.478L116.211 27.3794H122.474Z" fill="white"/>
<path id="Vector_13" d="M130.174 27.405L132.441 14.8779H136.654L134.911 24.4792H140.702L140.172 27.405H130.174Z" fill="white"/>
<path id="Vector_14" d="M142.081 27.405L144.348 14.8779H148.561L146.295 27.405H142.081Z" fill="white"/>
<path id="Vector_15" d="M158.343 19.6562C158.457 18.3786 157.749 17.6056 156.427 17.6056C154.94 17.6056 153.822 18.8385 153.382 21.266C153.069 23.0164 153.165 24.6709 155.297 24.6709C156.644 24.6709 157.462 23.7446 157.851 22.55H161.905C161.475 24.0834 160.543 25.4278 159.258 26.3674C157.972 27.3069 156.409 27.7871 154.818 27.7308C150.573 27.7308 148.434 25.1755 149.2 21.1255C149.475 19.3023 150.392 17.6372 151.784 16.4299C153.177 15.2225 154.955 14.5521 156.798 14.5393C160.724 14.5393 162.582 16.4558 162.339 19.6498L158.343 19.6562Z" fill="white"/>
<path id="Vector_16" d="M85.9229 36.2333C85.8463 36.6613 85.8846 37.511 87.3339 37.511C88.1256 37.511 89.045 37.3321 89.2493 36.5016C89.3833 35.9011 88.8215 35.7351 88.017 35.537L87.1998 35.3454C85.974 35.0515 84.7929 34.7705 85.1632 33.0584C85.3547 32.1897 86.1655 30.6629 88.7576 30.6629C91.2029 30.6629 91.5158 32.2216 91.3115 33.1734H89.7153C89.7153 32.8349 89.7919 32.0044 88.3299 32.0044C87.6914 32.0044 86.8934 32.2344 86.7401 32.9371C86.6061 33.5759 87.0913 33.6781 87.4105 33.7484L89.2301 34.2019C90.258 34.4574 91.1455 34.8918 90.8582 36.2908C90.3474 38.6289 87.8638 38.8461 87.1615 38.8461C84.2502 38.8461 84.1033 37.2043 84.314 36.2461L85.9229 36.2333Z" fill="white"/>
<path id="Vector_17" d="M98.8835 32.2216H94.6506L94.2866 33.8633H98.1812L97.8811 35.2304H93.993L93.5524 37.2426H97.9769L97.6768 38.6225H91.6179L93.3162 30.8481H99.1772L98.8835 32.2216Z" fill="white"/>
<path id="Vector_18" d="M101.616 34.2658L102.069 32.1833H104.151C105.128 32.1833 105.185 32.8221 105.096 33.2054C104.923 33.9719 104.457 34.2658 103.57 34.2658H101.616ZM99.0623 38.6225H100.69L101.329 35.5817H103.053C104.285 35.5817 104.266 35.9906 104.029 37.051C103.893 37.563 103.839 38.0935 103.87 38.6225H105.709L105.76 38.418C105.434 38.2839 105.491 38.0028 105.76 36.8657C106.072 35.4092 105.76 35.1793 105.179 34.8982C105.591 34.7606 105.96 34.5161 106.247 34.1895C106.534 33.863 106.729 33.466 106.813 33.0393C106.96 32.3685 106.902 30.8481 104.776 30.8481H100.722L99.0623 38.6225Z" fill="white"/>
<path id="Vector_19" d="M112.821 30.8481H114.557L110.146 38.6225H108.55L107.56 30.8481H109.354L109.775 36.738H109.801L112.821 30.8481Z" fill="white"/>
<path id="Vector_20" d="M115.445 38.6225H113.779L115.47 30.8481H117.143L115.445 38.6225Z" fill="white"/>
<path id="Vector_21" d="M123.234 33.3906C123.234 32.9179 123.138 32.0491 121.766 32.0491C120.961 32.0491 119.672 32.5666 119.212 34.7641C118.912 36.1631 119.212 37.4215 120.616 37.4215C121.072 37.4211 121.515 37.2805 121.888 37.0187C122.26 36.757 122.543 36.3869 122.698 35.9586H124.345C124.046 36.8041 123.492 37.5353 122.758 38.0506C122.025 38.5658 121.149 38.8394 120.253 38.8333C118.133 38.8333 116.907 37.4343 117.501 34.7449C118.095 32.0555 120.01 30.6374 122.059 30.6374C124.447 30.6374 125.066 32.2408 124.907 33.3906H123.234Z" fill="white"/>
<path id="Vector_22" d="M132.287 32.2216H128.054L127.697 33.8633H131.591L131.285 35.2304H127.397L126.956 37.2426H131.381L131.081 38.6225H125.028L126.72 30.8481H132.587L132.287 32.2216Z" fill="white"/>
<path id="Vector_23" d="M134.145 36.2333C134.069 36.6613 134.107 37.511 135.563 37.511C136.348 37.511 137.274 37.3321 137.446 36.5016C137.58 35.9011 137.018 35.7351 136.22 35.537L135.403 35.3454C134.177 35.0515 132.996 34.7705 133.366 33.0584C133.558 32.1897 134.369 30.6629 136.954 30.6629C139.4 30.6629 139.719 32.2216 139.508 33.1734H137.906C137.938 32.8349 137.982 32.0044 136.533 32.0044C135.895 32.0044 135.09 32.2344 134.937 32.9371C134.809 33.5759 135.288 33.6781 135.607 33.7484L137.446 34.2211C138.48 34.4766 139.361 34.911 139.08 36.31C138.57 38.648 136.08 38.8652 135.384 38.8652C132.472 38.8652 132.326 37.2235 132.536 36.2653L134.145 36.2333Z" fill="white"/>
</g>
<defs>
<clipPath id="clip0_6_5723">
<rect width="167" height="53.462" fill="white"/>
</clipPath>
</defs>
</svg>
