<svg width="37" height="37" viewBox="0 0 37 37" fill="none" xmlns="http://www.w3.org/2000/svg">
<g clip-path="url(#clip0_8_1754)">
<mask id="mask0_8_1754" style="mask-type:alpha" maskUnits="userSpaceOnUse" x="0" y="0" width="37" height="37">
<path d="M0.653076 0.450562H36.6531V36.3008H0.653076V0.450562Z" fill="white"/>
</mask>
<g mask="url(#mask0_8_1754)">
<path fill-rule="evenodd" clip-rule="evenodd" d="M34.8703 2.24364V29.835C34.8703 32.4192 32.7756 34.5146 30.1914 34.5153L7.07417 34.5181H7.07348C5.7274 34.5181 4.46837 33.9533 3.56588 32.9366C2.78735 32.0585 2.3939 30.9046 2.3939 29.732V3.49432L2.66548 3.7659C3.01367 4.11408 3.57772 4.11408 3.92591 3.7659L5.08884 2.60297L6.25177 3.7659C6.41889 3.93303 6.64521 4.02703 6.88198 4.02703C7.11874 4.02703 7.34576 3.93233 7.51288 3.7652L8.67164 2.60297L9.83805 3.76659C10.1869 4.11408 10.7503 4.11338 11.0985 3.7659L12.2607 2.60297L13.4236 3.7659C13.7718 4.11408 14.3359 4.11408 14.6841 3.7659L15.847 2.60297L17.0099 3.7659C17.3581 4.11408 17.9222 4.11408 18.2703 3.7659L19.4333 2.60297L20.5955 3.7659C20.9437 4.11408 21.5084 4.11408 21.8566 3.7659L23.0196 2.60297L24.1818 3.7659C24.53 4.11338 25.0933 4.11408 25.4415 3.76659L26.6086 2.60297L27.7681 3.7652C27.9345 3.93233 28.1608 4.02703 28.3976 4.02703H28.3983C28.635 4.02703 28.8614 3.93303 29.0285 3.7659L30.1914 2.60297L31.0932 3.50476V30.9228C32.0779 30.9228 32.8759 30.124 32.8759 29.1401V3.13499C32.8759 2.89823 32.7819 2.67191 32.6148 2.50478L30.8216 0.712336C30.4734 0.364153 29.9094 0.364153 29.5612 0.712336L28.399 1.87387L27.2409 0.712336C27.0738 0.545208 26.8475 0.451199 26.6114 0.451199H26.61C26.3746 0.451199 26.1476 0.544512 25.9812 0.710943L24.8134 1.87596L23.6491 0.712336C23.3016 0.364153 22.7375 0.364153 22.3893 0.712336L21.2264 1.87457L20.0635 0.712336C19.7153 0.364153 19.1512 0.364153 18.8031 0.712336L17.6401 1.87457L16.4772 0.712336C16.129 0.364153 15.565 0.364153 15.2168 0.712336L14.0538 1.87457L12.8909 0.712336C12.5427 0.364153 11.9787 0.364153 11.6305 0.712336L10.4669 1.87596L9.29906 0.710943C9.13193 0.544512 8.90561 0.451199 8.66955 0.451199H8.66885C8.43209 0.451199 8.20577 0.545208 8.03934 0.712336L6.88058 1.87387L5.71835 0.712336C5.37086 0.364153 4.80611 0.364153 4.45793 0.712336L3.29569 1.87457L2.13276 0.712336C1.82219 0.400364 1.32011 0.355797 0.951032 0.640611C0.727499 0.813309 0.611206 1.09116 0.611206 1.37249V29.7041C0.611206 31.3782 1.20172 33.0174 2.34376 34.2416C3.58051 35.5675 5.27059 36.3008 7.07348 36.3008H7.07417L30.1914 36.2973C33.7547 36.2966 36.653 33.3976 36.653 29.835V4.02703C36.653 3.04168 35.855 2.24364 34.8703 2.24364Z" fill="#004A7C"/>
</g>
<path fill-rule="evenodd" clip-rule="evenodd" d="M14.9452 20.1744H27.5069V7.61265H14.9452V20.1744ZM29.2896 6.7213C29.2896 6.22967 28.8906 5.82996 28.3983 5.82996H14.0538C13.5615 5.82996 13.1625 6.22967 13.1625 6.7213V21.0657C13.1625 21.5581 13.5615 21.9578 14.0538 21.9578H28.3983C28.8906 21.9578 29.2896 21.5581 29.2896 21.0657V6.7213Z" fill="#004A7C"/>
<path fill-rule="evenodd" clip-rule="evenodd" d="M5.08886 7.61265H10.4676C10.9599 7.61265 11.3596 7.21363 11.3596 6.7213C11.3596 6.22967 10.9599 5.82996 10.4676 5.82996H5.08886C4.59653 5.82996 4.19751 6.22967 4.19751 6.7213C4.19751 7.21363 4.59653 7.61265 5.08886 7.61265Z" fill="#004A7C"/>
<path fill-rule="evenodd" clip-rule="evenodd" d="M5.08886 11.1983H10.4676C10.9599 11.1983 11.3596 10.7999 11.3596 10.3076C11.3596 9.81528 10.9599 9.41626 10.4676 9.41626H5.08886C4.59653 9.41626 4.19751 9.81528 4.19751 10.3076C4.19751 10.7999 4.59653 11.1983 5.08886 11.1983Z" fill="#004A7C"/>
<path fill-rule="evenodd" clip-rule="evenodd" d="M5.08886 14.7852H10.4676C10.9599 14.7852 11.3596 14.3855 11.3596 13.8932C11.3596 13.4008 10.9599 13.0018 10.4676 13.0018H5.08886C4.59653 13.0018 4.19751 13.4008 4.19751 13.8932C4.19751 14.3855 4.59653 14.7852 5.08886 14.7852Z" fill="#004A7C"/>
<path fill-rule="evenodd" clip-rule="evenodd" d="M5.08886 18.3707H10.4676C10.9599 18.3707 11.3596 17.9717 11.3596 17.4801C11.3596 16.9878 10.9599 16.5887 10.4676 16.5887H5.08886C4.59653 16.5887 4.19751 16.9878 4.19751 17.4801C4.19751 17.9717 4.59653 18.3707 5.08886 18.3707Z" fill="#004A7C"/>
<path fill-rule="evenodd" clip-rule="evenodd" d="M5.08886 21.9578H10.4676C10.9599 21.9578 11.3596 21.5581 11.3596 21.0658C11.3596 20.5735 10.9599 20.1744 10.4676 20.1744H5.08886C4.59653 20.1744 4.19751 20.5735 4.19751 21.0658C4.19751 21.5581 4.59653 21.9578 5.08886 21.9578Z" fill="#004A7C"/>
<path fill-rule="evenodd" clip-rule="evenodd" d="M28.3983 23.76H5.08886C4.59653 23.76 4.19751 24.1597 4.19751 24.6521C4.19751 25.1444 4.59653 25.5434 5.08886 25.5434H28.3983C28.8906 25.5434 29.2896 25.1444 29.2896 24.6521C29.2896 24.1597 28.8906 23.76 28.3983 23.76Z" fill="#004A7C"/>
<path fill-rule="evenodd" clip-rule="evenodd" d="M28.3983 27.347H5.08886C4.59653 27.347 4.19751 27.7461 4.19751 28.2384C4.19751 28.73 4.59653 29.129 5.08886 29.129H28.3983C28.8906 29.129 29.2896 28.73 29.2896 28.2384C29.2896 27.7461 28.8906 27.347 28.3983 27.347Z" fill="#004A7C"/>
</g>
<defs>
<clipPath id="clip0_8_1754">
<rect width="36" height="36" fill="white" transform="translate(0.653076 0.462036)"/>
</clipPath>
</defs>
</svg>
