<svg width="37" height="37" viewBox="0 0 37 37" fill="none" xmlns="http://www.w3.org/2000/svg">
<g clip-path="url(#clip0_8_1920)">
<mask id="mask0_8_1920" style="mask-type:alpha" maskUnits="userSpaceOnUse" x="7" y="0" width="24" height="37">
<path d="M7.44879 0.960083H30.2286V36.462H7.44879V0.960083Z" fill="white"/>
</mask>
<g mask="url(#mask0_8_1920)">
<path fill-rule="evenodd" clip-rule="evenodd" d="M19.5781 34.9511V31.1691C19.5781 30.9679 19.4988 30.7757 19.3562 30.6337L16.8792 28.1561C16.6923 27.9692 16.5621 27.7266 16.5385 27.4628C16.5095 27.138 16.6231 26.8274 16.8502 26.5996L19.1344 24.3161H21.5498L23.2353 26.0181C23.7239 26.5115 24.0546 27.151 24.1203 27.8426C24.2043 28.7282 23.8979 29.5759 23.2808 30.1953L20.7944 32.6936C21.3872 33.2834 22.3455 33.2811 22.9359 32.6889L24.354 31.2643C25.226 30.3888 25.6892 29.2121 25.6454 27.9697C25.6058 26.8268 25.1012 25.7495 24.2966 24.9373L22.4035 23.0252C22.2615 22.8821 22.0669 22.801 21.8652 22.801H18.8208C18.6203 22.801 18.4274 22.8809 18.2854 23.0229L15.8351 25.4732C15.3494 25.9595 15.0388 26.6067 15.0204 27.2936C15.0015 28.0129 15.2731 28.6915 15.7801 29.1985L18.0636 31.4826V34.9511C15.1459 34.7287 12.5778 33.2385 10.9142 31.0289L13.2747 28.6595C13.4166 28.517 13.4953 28.3253 13.4953 28.1247V25.391L13.6515 25.236C14.4626 24.4261 14.9725 23.3471 15.0145 22.2023C15.0595 20.96 14.5975 19.7845 13.7249 18.9095L12.395 17.5761C13.5876 16.555 15.0252 15.812 16.6071 15.4493C16.8088 17.1951 17.588 18.819 18.8409 20.0732L19.7975 21.031C19.9383 21.1718 20.1294 21.2516 20.3288 21.2528L23.0513 21.2688L23.9381 22.1485C25.223 23.4222 26.8919 24.1771 28.6803 24.3066C28.701 24.5657 28.7146 24.826 28.7146 25.0899C28.7146 30.29 24.6805 34.5624 19.5781 34.9511ZM11.323 18.6463L12.6523 19.9791C13.2007 20.5293 13.503 21.2593 13.503 22.0361C13.503 22.8152 13.1989 23.5476 12.6476 24.0984L12.2039 24.5409C12.0613 24.6829 11.9814 24.8757 11.9814 25.0769V27.8118L10.0813 29.7191C9.34591 28.3365 8.92765 26.7617 8.92765 25.0899C8.92765 22.6295 9.83219 20.379 11.323 18.6463ZM17.9678 4.88645C17.3265 4.92195 16.6852 4.68531 16.2232 4.22328C16.2232 4.22328 16.2232 4.22328 16.2226 4.22328C15.7599 3.76065 15.5239 3.12114 15.5588 2.47808C16.2036 2.44318 16.842 2.67863 17.3046 3.14126C17.7672 3.60388 18.0033 4.2428 17.9678 4.88645ZM20.2454 3.14126C20.7086 2.67863 21.3493 2.44141 21.9912 2.47808C22.0267 3.12114 21.7906 3.76065 21.328 4.22328C20.8648 4.68531 20.2259 4.92076 19.5822 4.88645C19.5467 4.2428 19.7833 3.60388 20.2454 3.14126ZM28.4348 22.7602C27.1422 22.5892 25.9448 22.0053 25.0035 21.0724L23.8979 19.9762C23.7571 19.8365 23.5678 19.7579 23.3696 19.7567L20.6488 19.7407L19.9123 19.003C18.89 17.9795 18.2594 16.652 18.1062 15.2251C18.3428 15.2074 18.5806 15.1961 18.8208 15.1961C23.4737 15.1961 27.3847 18.4262 28.4348 22.7602ZM20.2454 8.88561C20.7086 8.42358 21.3475 8.18694 21.9912 8.22243C22.0267 8.86609 21.79 9.5056 21.328 9.96763C20.8648 10.4297 20.2259 10.6663 19.5822 10.6308C19.5467 9.98774 19.7833 9.34823 20.2454 8.88561ZM19.5781 13.7094V12.1447C19.6213 12.1465 19.6644 12.1488 19.707 12.1488C20.7039 12.1488 21.6794 11.7572 22.3988 11.0384C23.353 10.0842 23.7293 8.67796 23.3808 7.36936C23.311 7.10728 23.1057 6.902 22.8442 6.83219C21.709 6.53048 20.5015 6.77422 19.5781 7.46638V6.40033C19.6213 6.40152 19.6644 6.40447 19.707 6.40447C20.7039 6.40447 21.6794 6.01284 22.3988 5.29406C23.353 4.33923 23.7293 2.93361 23.3808 1.62442C23.311 1.36234 23.1057 1.15765 22.8442 1.08785C21.5351 0.739398 20.1294 1.11565 19.1752 2.07048C19.0273 2.21838 18.8948 2.37811 18.7753 2.54553C18.6558 2.37811 18.5233 2.21838 18.3754 2.07048C17.4211 1.11565 16.0149 0.739398 14.7063 1.08785C14.4442 1.15765 14.239 1.36234 14.1697 1.62442C13.8207 2.93302 14.1975 4.33923 15.1518 5.29406C15.8712 6.01284 16.8461 6.40447 17.8435 6.40447C17.9169 6.40447 17.9902 6.40152 18.0636 6.39738V13.7094C15.4925 13.8792 13.1522 14.9039 11.3236 16.5023L11.3005 16.4787L10.228 17.5477L10.2516 17.5713C8.48632 19.581 7.41318 22.2112 7.41318 25.0899C7.41318 31.3797 12.5304 36.4975 18.8208 36.4975C25.1112 36.4975 30.2285 31.3797 30.2285 25.0899C30.2285 19.0539 25.517 14.1011 19.5781 13.7094Z" fill="#004A7C"/>
</g>
</g>
<defs>
<clipPath id="clip0_8_1920">
<rect width="36" height="36" fill="white" transform="translate(0.782227 0.462036)"/>
</clipPath>
</defs>
</svg>
